<svg width="23" height="23" viewBox="0 0 23 23" fill="none" xmlns="http://www.w3.org/2000/svg">
<path d="M0.461897 0.352034C0.16932 0.624644 0 1.04907 0 1.59872V21.2044C0 21.7541 0.16932 22.1785 0.461897 22.4511L0.534108 22.511L12.8771 11.529V11.2697L0.534108 0.287762L0.461897 0.352034Z" fill="url(#paint0_linear_86_654)"/>
<path d="M16.9869 15.1915L12.8771 11.529V11.2697L16.9919 7.60722L17.084 7.65488L21.957 10.1228C23.3477 10.8231 23.3477 11.9756 21.957 12.6804L17.084 15.1439L16.9869 15.1915V15.1915Z" fill="url(#paint1_linear_86_654)"/>
<path d="M17.084 15.1439L12.8771 11.3994L0.461914 22.4512C0.923812 22.8834 1.67704 22.9355 2.53361 22.5033L17.084 15.1439" fill="url(#paint2_linear_86_654)"/>
<path d="M17.084 7.6549L2.53361 0.295559C1.67704 -0.132194 0.923812 -0.0801115 0.461914 0.352074L12.8771 11.3994L17.084 7.6549Z" fill="url(#paint3_linear_86_654)"/>
<defs>
<linearGradient id="paint0_linear_86_654" x1="11.7812" y1="21.4086" x2="-2.99669" y2="4.8059" gradientUnits="userSpaceOnUse">
<stop stop-color="#00A0FF"/>
<stop offset="0.0066" stop-color="#00A1FF"/>
<stop offset="0.2601" stop-color="#00BEFF"/>
<stop offset="0.5122" stop-color="#00D2FF"/>
<stop offset="0.7604" stop-color="#00DFFF"/>
<stop offset="1" stop-color="#00E3FF"/>
</linearGradient>
<linearGradient id="paint1_linear_86_654" x1="23.7679" y1="11.3981" x2="-0.332402" y2="11.3981" gradientUnits="userSpaceOnUse">
<stop stop-color="#FFE000"/>
<stop offset="0.4087" stop-color="#FFBD00"/>
<stop offset="0.7754" stop-color="#FFA500"/>
<stop offset="1" stop-color="#FF9C00"/>
</linearGradient>
<linearGradient id="paint2_linear_86_654" x1="14.7964" y1="9.36385" x2="-5.24359" y2="-13.1508" gradientUnits="userSpaceOnUse">
<stop stop-color="#FF3A44"/>
<stop offset="1" stop-color="#C31162"/>
</linearGradient>
<linearGradient id="paint3_linear_86_654" x1="-2.66326" y1="28.9739" x2="6.28552" y2="18.9202" gradientUnits="userSpaceOnUse">
<stop stop-color="#32A071"/>
<stop offset="0.0685" stop-color="#2DA771"/>
<stop offset="0.4762" stop-color="#15CF74"/>
<stop offset="0.8009" stop-color="#06E775"/>
<stop offset="1" stop-color="#00F076"/>
</linearGradient>
</defs>
</svg>
