<svg width="21" height="24" viewBox="0 0 21 24" fill="none" xmlns="http://www.w3.org/2000/svg">
<path d="M16.7271 12.7632C16.6991 9.73113 19.2734 8.25604 19.3911 8.18736C17.9332 6.11489 15.6735 5.83172 14.8794 5.80915C12.9815 5.61441 11.1405 6.91641 10.1737 6.91641C9.1876 6.91641 7.6988 5.82796 6.09422 5.85995C4.02939 5.89099 2.09772 7.05658 1.03829 8.86658C-1.14811 12.5571 0.482526 17.9806 2.57726 20.9637C3.62511 22.4247 4.84954 24.0559 6.45219 23.9985C8.0201 23.9355 8.60578 23.0239 10.4979 23.0239C12.3726 23.0239 12.9226 23.9985 14.5571 23.9619C16.2398 23.9355 17.2993 22.4943 18.3105 21.0201C19.5214 19.3456 20.0077 17.6965 20.027 17.6118C19.9874 17.5986 16.759 16.3973 16.7271 12.7632Z" fill="white"/>
<path d="M13.6395 3.84674C14.4828 2.8185 15.0598 1.41961 14.8996 1.52588e-05C13.6791 0.0526973 12.1527 0.823172 11.2737 1.82883C10.496 2.71502 9.80126 4.16754 9.98072 5.53351C11.3518 5.63323 12.7596 4.85899 13.6395 3.84674Z" fill="white"/>
</svg>
